<svg width="58" height="58" viewBox="0 0 58 58" fill="none" xmlns="http://www.w3.org/2000/svg">
<g id="Group 147">
<circle id="Ellipse 12" cx="28.5768" cy="28.8415" r="28.5768" fill="#F0EEEE"/>
<g id="Icon">
<path fill-rule="evenodd" clip-rule="evenodd" d="M29.5788 14.7732C29.0913 14.4285 28.4087 14.4285 27.9212 14.7732L15.7712 23.3641C15.4423 23.5966 15.25 23.9541 15.25 24.3328V37.8328C15.25 38.8093 15.6767 39.7458 16.4362 40.4363C17.1957 41.1267 18.2259 41.5146 19.3 41.5146H24.7H32.8H38.2C39.2741 41.5146 40.3043 41.1267 41.0638 40.4363C41.8233 39.7458 42.25 38.8093 42.25 37.8328V24.3328C42.25 23.9541 42.0577 23.5966 41.7288 23.3641L29.5788 14.7732ZM23.35 39.0601V40.2874C23.35 40.9652 23.9544 41.5146 24.7 41.5146C25.4456 41.5146 26.05 40.9652 26.05 40.2874V39.0601H31.45V29.2419H26.05V39.0601H23.35ZM23.35 39.0601H19.3C18.942 39.0601 18.5986 38.9308 18.3454 38.7006C18.0922 38.4705 17.95 38.1583 17.95 37.8328V24.9331L28.75 17.2967L39.55 24.9331V37.8328C39.55 38.1583 39.4078 38.4705 39.1546 38.7006C38.9014 38.9308 38.558 39.0601 38.2 39.0601H34.15V28.0146C34.15 27.3368 33.5456 26.7874 32.8 26.7874H24.7C23.9544 26.7874 23.35 27.3368 23.35 28.0146V39.0601Z" fill="#586AF5"/>
<path d="M24.7 41.5146C25.4456 41.5146 26.05 40.9652 26.05 40.2874V39.0601H23.35V40.2874C23.35 40.9652 23.9544 41.5146 24.7 41.5146Z" fill="#586AF5"/>
</g>
</g>
</svg>
