<svg width="28" height="28" viewBox="0 0 28 28" fill="none" xmlns="http://www.w3.org/2000/svg">
<g id="search">
<g id="Icon">
<path fill-rule="evenodd" clip-rule="evenodd" d="M4.75 13.125C4.75 8.77576 8.27576 5.25 12.625 5.25C16.9742 5.25 20.5 8.77576 20.5 13.125C20.5 15.2467 19.6609 17.1724 18.2966 18.5884C18.2581 18.618 18.221 18.6505 18.1858 18.6858C18.1505 18.721 18.118 18.7581 18.0884 18.7966C16.6724 20.1609 14.7467 21 12.625 21C8.27576 21 4.75 17.4742 4.75 13.125ZM18.9449 21.0359L18.1858 20.2767C17.7817 19.8727 17.7492 19.2377 18.0884 18.7966C18.1591 18.7285 18.2285 18.6591 18.2966 18.5884C18.7377 18.2492 19.3727 18.2817 19.7767 18.6858L20.5359 19.4449C20.0661 20.0322 19.5322 20.5661 18.9449 21.0359ZM18.9449 21.0359L23.0795 25.1705C23.5188 25.6098 24.2312 25.6098 24.6705 25.1705C25.1098 24.7312 25.1098 24.0188 24.6705 23.5795L20.5359 19.4449C21.9215 17.7128 22.75 15.5156 22.75 13.125C22.75 7.53312 18.2169 3 12.625 3C7.03312 3 2.5 7.53312 2.5 13.125C2.5 18.7169 7.03312 23.25 12.625 23.25C15.0156 23.25 17.2128 22.4215 18.9449 21.0359Z" fill="#586AF5"/>
<path d="M18.1858 20.2767L18.9449 21.0359C19.5322 20.5661 20.0661 20.0322 20.5359 19.4449L19.7767 18.6858C19.3727 18.2817 18.7377 18.2492 18.2966 18.5884C18.2285 18.6591 18.1591 18.7285 18.0884 18.7966C17.7492 19.2377 17.7817 19.8727 18.1858 20.2767Z" fill="#586AF5"/>
</g>
</g>
</svg>
